HIERARCHY
ROOT Hips
{
  OFFSET 0 0 0
  CHANNELS 6 Xposition Yposition Zposition Zrotation Xrotation Yrotation
  JOINT Spine
  {
    OFFSET 0 8.18577 0
    CHANNELS 3 Zrotation Xrotation Yrotation
    JOINT Spine1
    {
      OFFSET 0 23.9492 0
      CHANNELS 3 Zrotation Xrotation Yrotation
      JOINT Neck
      {
        OFFSET 0 23.8508 2.16826
        CHANNELS 3 Zrotation Xrotation Yrotation
        JOINT Head
        {
          OFFSET 0 13.9757 -1.99653
          CHANNELS 3 Zrotation Xrotation Yrotation
          End Site
          {
            OFFSET 0 24.9566 0
          }
        }
      }
      JOINT LeftShoulder
      {
        OFFSET 3.97939 22.162 -0.249083
        CHANNELS 3 Zrotation Xrotation Yrotation
        JOINT LeftArm
        {
          OFFSET 10.8129 0 0
          CHANNELS 3 Zrotation Xrotation Yrotation
          JOINT LeftForeArm
          {
            OFFSET 31.6972 0 0
            CHANNELS 3 Zrotation Xrotation Yrotation
            JOINT LeftHand
            {
              OFFSET 27.0474 0 0
              CHANNELS 3 Zrotation Xrotation Yrotation
              End Site
              {
                OFFSET 14.974 0 0
              }
            }
          }
        }
      }
      JOINT RightShoulder
      {
        OFFSET -4.00645 22.162 -0.249083
        CHANNELS 3 Zrotation Xrotation Yrotation
        JOINT RightArm
        {
          OFFSET -10.8129 0 0
          CHANNELS 3 Zrotation Xrotation Yrotation
          JOINT RightForeArm
          {
            OFFSET -31.6972 0 0
            CHANNELS 3 Zrotation Xrotation Yrotation
            JOINT RightHand
            {
              OFFSET -27.0474 0 0
              CHANNELS 3 Zrotation Xrotation Yrotation
              End Site
              {
                OFFSET -14.974 0 0
              }
            }
          }
        }
      }
    }
  }
  JOINT LeftUpLeg
  {
    OFFSET 9.98265 0 0
    CHANNELS 3 Zrotation Xrotation Yrotation
    JOINT LeftLeg
    {
      OFFSET 0 -38.5116 0
      CHANNELS 3 Zrotation Xrotation Yrotation
      JOINT LeftFoot
      {
        OFFSET 0 -44.7893 0
        CHANNELS 3 Zrotation Xrotation Yrotation
        JOINT LeftToeBase
        {
          OFFSET 0 -6.48872 14.974
          CHANNELS 3 Zrotation Xrotation Yrotation
          End Site
          {
            OFFSET 0 0 3.99306
          }
        }
      }
    }
  }
  JOINT RightUpLeg
  {
    OFFSET -9.98265 0 0
    CHANNELS 3 Zrotation Xrotation Yrotation
    JOINT RightLeg
    {
      OFFSET 0 -38.5116 0
      CHANNELS 3 Zrotation Xrotation Yrotation
      JOINT RightFoot
      {
        OFFSET 0 -44.7893 0
        CHANNELS 3 Zrotation Xrotation Yrotation
        JOINT RightToeBase
        {
          OFFSET 0 -6.48872 14.974
          CHANNELS 3 Zrotation Xrotation Yrotation
          End Site
          {
            OFFSET 0 0 3.99306
          }
        }
      }
    }
  }
}
MOTION
Frames:	7
Frame Time:	0.00833333
-12.904 88.7576 40.4994 -0.620314 -5.97804 -177.949 -0.165269 -4.32608 3.66515 4.98764 3.92317 3.50048 2.99483 22.1774 -1.45464 -8.94336 -13.0783 -3.61245 0.71459 9.04161 -1.78803 -69.7071 51.2461 9.79286 12.752 12.4099 -41.672 34.5387 15.9114 -4.06812 -12.5915 -1.34564 5.20638 47.3824 35.2296 38.5984 -19.0745 -4.77249 49.1964 -17.6341 5.08325 -6.67481 0.996637 -36.565 0.218777 1.6871 16.9279 -1.17847 -4.81173 16.4901 6.86596 -9.93923e-017 0 1.59028e-015 1.92483 -15.4686 -4.22176 -4.96036 43.1188 19.3668 -5.47528 -18.127 -21.7543 -0 -3.18055e-015 -0 
-12.7443 88.73 41.2876 -0.592284 -6.04705 -178.065 -0.316288 -4.40802 3.52332 5.15524 4.07936 3.35183 2.99767 22.252 -1.4926 -8.7934 -13.4822 -3.64129 0.745328 8.87411 -1.91867 -69.1552 50.3266 8.59769 12.4844 11.4336 -41.4604 32.2847 14.8498 -4.27774 -12.6016 -1.29929 5.01782 47.7991 35.5254 38.1261 -19.2033 -4.59319 49.6125 -16.9299 5.36824 -6.68539 1.17672 -37.236 1.29608 1.98396 17.8895 -2.15096 -4.66808 16.3925 6.7939 1.98785e-016 0 -0 1.99181 -16.1669 -4.09209 -4.74331 43.3643 19.5628 -5.87008 -18.179 -22.1208 3.97569e-016 0 7.95139e-016 
-12.6272 88.7511 41.9454 -0.560335 -5.92548 -178.27 -0.249797 -4.38295 3.34283 5.04598 4.18261 3.16795 3.12768 22.0859 -1.32988 -8.95003 -13.1639 -3.48608 0.722322 8.89109 -1.85927 -68.4579 49.31 7.37032 12.2035 10.4088 -41.3391 29.8407 13.8109 -4.291 -12.3707 -1.15701 5.07102 48.3464 35.6934 37.4528 -19.2313 -4.29028 50.0521 -16.235 5.732 -6.67568 1.36429 -37.5394 2.45956 2.4044 18.8914 -3.25123 -4.60535 15.9146 6.69631 1.98785e-016 -7.95139e-016 -1.59028e-015 2.06649 -16.4994 -4.14863 -4.75177 43.3615 19.7443 -6.10826 -18.1108 -22.1115 -1.98785e-016 0 -0 
-12.5303 88.7996 42.5302 -0.553892 -5.65051 -178.534 -0.345204 -4.43744 3.19799 5.27415 4.59576 2.99971 2.75459 22.4266 -1.3037 -8.52218 -13.8584 -3.41117 0.522904 8.915 -1.90006 -67.7371 48.341 6.06222 11.9546 9.29673 -41.3124 27.5733 12.8316 -3.76501 -12.5297 -1.1263 5.11885 49.0593 35.9881 36.7209 -19.0354 -4.13124 50.3126 -15.9331 5.85855 -6.86476 1.52873 -37.6012 3.56277 2.86208 19.98 -4.43232 -4.52603 15.1989 6.69561 1.49089e-016 -3.97569e-016 -0 2.14581 -16.5982 -4.08615 -4.74996 43.303 19.9139 -6.25837 -18.0086 -22.1155 2.20695e-032 1.59028e-015 -7.95139e-016 
-12.4349 88.8541 43.1425 -0.527538 -5.46599 -178.781 -0.283877 -4.454 3.11064 5.141 4.8056 2.90584 2.95896 22.378 -1.27107 -8.57759 -13.7691 -3.37448 0.593592 8.85954 -2.0111 -67.1769 47.4515 4.83632 11.773 8.38711 -41.218 25.5705 12.0282 -3.28387 -12.2708 -0.856636 4.87774 49.5812 36.179 36.1418 -18.7102 -3.82265 50.4792 -15.5416 5.98846 -6.64441 1.67101 -37.8282 4.67438 3.44051 21.3288 -5.67816 -4.3684 14.2896 6.59205 -4.96962e-017 3.97569e-016 7.95139e-016 2.25809 -16.7823 -4.00198 -4.76294 43.1819 19.9177 -6.33485 -17.8962 -21.9722 1.98785e-016 -1.59028e-015 -7.95139e-016 
-12.298 88.9259 43.8711 -0.544929 -5.5804 -178.987 -0.496716 -4.54914 3.01574 5.28304 4.79398 2.81419 3.06982 22.4869 -1.32607 -8.58607 -13.9646 -3.43818 0.588505 8.80436 -2.1612 -66.6066 46.5866 3.59039 11.5654 7.62636 -41.195 24.0274 11.4443 -2.3127 -12.1314 -0.866958 4.86337 50.7501 36.2035 34.745 -18.4328 -3.35744 50.8765 -14.7811 6.33594 -6.51846 1.78694 -38.4681 5.75782 4.06761 22.8693 -7.1436 -4.26685 13.4344 6.56415 4.96962e-017 0 -0 2.36582 -17.4451 -3.6798 -4.60902 43.2556 19.8003 -6.41721 -17.6379 -21.9819 -1.98785e-016 0 -0 
-12.19 89.0115 44.5016 -0.520492 -5.49686 -179.236 -0.604573 -4.63005 2.91245 5.41481 4.99751 2.70044 3.0545 22.4339 -1.26873 -8.5328 -13.9362 -3.36506 0.532655 8.70582 -2.2142 -66.0396 45.9043 2.3596 11.2286 6.70786 -41.1503 22.6965 10.6121 -1.40273 -12.1024 -0.588548 4.69405 50.9003 37.2653 34.1755 -18.6033 -3.8653 50.8207 -14.2947 5.86868 -6.47501 1.94955 -38.8082 6.73109 4.72078 24.45 -8.5959 -3.86525 12.4882 6.40842 -0 -7.95139e-016 -0 2.47935 -17.7528 -3.70277 -4.70723 43.1011 19.7538 -6.38326 -17.3732 -21.6331 3.97569e-016 1.59028e-015 7.95139e-016 
